<?xml version="1.0" encoding="UTF-8" ?>
<!DOCTYPE svg PUBLIC "-//W3C//DTD SVG 1.1//EN" "http://www.w3.org/Graphics/SVG/1.1/DTD/svg11.dtd">
<svg xmlns="http://www.w3.org/2000/svg" style="display: none;">
    <devs>
        <filter id="shadow">
            <feGaussianBlur stdDeviation="2" in="SourceAlpha" />
            <feOffset dx="0" dy="0" result="offsetblur" />
            <feFlood flood-color="rgba(200,200, 200, 0.4)" />
            <feComposite operator="in" in2="offsetblur" />
            <feMerge>
                <feMergeNode/>
                <feMergeNode in="SourceGraphic" />
            </feMerge>
        </filter>
    </devs>
    <defs>
        <symbol id="twitter" viewBox="0 0 16 16">
            <path fill="currentColor" d="M15.969,3.058c-0.586,0.26-1.217,0.436-1.878,0.515c0.675-0.405,1.194-1.045,1.438-1.809
                  c-0.632,0.375-1.332,0.647-2.076,0.793c-0.596-0.636-1.446-1.033-2.387-1.033c-1.806,0-3.27,1.464-3.27,3.27 c0,0.256,0.029,0.506,0.085,0.745C5.163,5.404,2.753,4.102,1.14,2.124C0.859,2.607,0.698,3.168,0.698,3.767 c0,1.134,0.577,2.135,1.455,2.722C1.616,6.472,1.112,6.325,0.671,6.08c0,0.014,0,0.027,0,0.041c0,1.584,1.127,2.906,2.623,3.206 C3.02,9.402,2.731,9.442,2.433,9.442c-0.211,0-0.416-0.021-0.615-0.059c0.416,1.299,1.624,2.245,3.055,2.271 c-1.119,0.877-2.529,1.4-4.061,1.4c-0.264,0-0.524-0.015-0.78-0.046c1.447,0.928,3.166,1.469,5.013,1.469 c6.015,0,9.304-4.983,9.304-9.304c0-0.142-0.003-0.283-0.009-0.423C14.976,4.29,15.531,3.714,15.969,3.058z" />
        </symbol>
        <symbol id="github" viewBox="0 0 16 16">
            <path fill="currentColor" d="M7.999,0.431c-4.285,0-7.76,3.474-7.76,7.761 c0,3.428,2.223,6.337,5.307,7.363c0.388,0.071,0.53-0.168,0.53-0.374c0-0.184-0.007-0.672-0.01-1.32 c-2.159,0.469-2.614-1.04-2.614-1.04c-0.353-0.896-0.862-1.135-0.862-1.135c-0.705-0.481,0.053-0.472,0.053-0.472 c0.779,0.055,1.189,0.8,1.189,0.8c0.692,1.186,1.816,0.843,2.258,0.645c0.071-0.502,0.271-0.843,0.493-1.037 C4.86,11.425,3.049,10.76,3.049,7.786c0-0.847,0.302-1.54,0.799-2.082C3.768,5.507,3.501,4.718,3.924,3.65 c0,0,0.652-0.209,2.134,0.796C6.677,4.273,7.34,4.187,8,4.184c0.659,0.003,1.323,0.089,1.943,0.261 c1.482-1.004,2.132-0.796,2.132-0.796c0.423,1.068,0.157,1.857,0.077,2.054c0.497,0.542,0.798,1.235,0.798,2.082 c0,2.981-1.814,3.637-3.543,3.829c0.279,0.24,0.527,0.713,0.527,1.437c0,1.037-0.01,1.874-0.01,2.129 c0,0.208,0.14,0.449,0.534,0.373c3.081-1.028,5.302-3.935,5.302-7.362C15.76,3.906,12.285,0.431,7.999,0.431z" />
        </symbol>
        <symbol id="linkedin" viewBox="0 0 512 512">
            <path fill="currentColor" d="M78.77,210.052h78.769V433.23H78.77V210.052z M343.18,202.436c22.18,0.135,50.551,11.026,67.872,28.622  c17.974,20.083,22.179,42.788,22.179,70.892V433.23h-78.769V311.27c0-22.32-9.052-49.507-38.59-50.41  c-17.32,0.275-28.487,10.243-36.77,27.038c-2.359,5.513-1.833,11.692-1.833,17.859l-1.577,127.474h-78.77V210.052h78.77  l1.577,29.141c5.371-8.923,12.858-17.314,22.192-24.007C312.052,206.115,326.77,202.686,343.18,202.436z M118.154,103.058  c20.218,0.275,40.301,16.147,41.089,40.302c0.526,21.545-18.243,40.308-41.615,40.308h-0.525c-20.083,0-39.775-16.41-40.698-40.308  C76.802,122.09,94.654,103.596,118.154,103.058z M0,0v512h512V0H0z" />
        </symbol>
        <symbol id="xing" viewBox="0 0 1000 940">
            <path fill="currentColor" d="M0 698l219 0l173-286-130-229l-219 0l130 229zm362-90l346-608l232 0l-345 608 222 392l-232 0z" />
        </symbol>
        <symbol id="menu" viewBox="0 0 512 512">
            <path fill="currentColor" d="M18,1.484c0,0.82-0.665,1.484-1.484,1.484H1.484C0.665,2.969,0,2.304,0,1.484l0,0C0,0.665,0.665,0,1.484,0 h15.031C17.335,0,18,0.665,18,1.484L18,1.484z" />
            <path fill="currentColor" d="M18,7.516C18,8.335,17.335,9,16.516,9H1.484C0.665,9,0,8.335,0,7.516l0,0c0-0.82,0.665-1.484,1.484-1.484 h15.031C17.335,6.031,18,6.696,18,7.516L18,7.516z" />
            <path fill="currentColor" d="M18,13.516C18,14.335,17.335,15,16.516,15H1.484C0.665,15,0,14.335,0,13.516l0,0 c0-0.82,0.665-1.484,1.484-1.484h15.031C17.335,12.031,18,12.696,18,13.516L18,13.516z" />
        </symbol>
        <symbol id="keybase" viewBox="0 0 100 100">
            <rect fill="currentColor" width="100" height="100"></rect>
            <path fill="#f7f7f7" d="M56.871,76.545c9.459,0.143,11.154-9.406,12.404-11.02c1.254,2.766,6.73,11.523,13.275,11.277c10.395-0.389,14.369-10.473,7.174-17.434c-4.156-4.021-9.289-5.24-11.672-1.908c-3.039,4.246,7.469,2.35,9.143,7.852c1.064,3.494-2.121,6.049-5.02,5.82c-3.406-0.27-7.949-9.213-8.795-11.467c-1.752-4.658-0.895-7.119-0.115-11.723c1.264-7.461,2.604-11.496,3.066-16.23c0.324-3.284,0.924-4.002-2.82-6.644c-3.07-2.162-4.623,3.352-5.656,6.64c-2.236,7.12-2.938,16.593-4.975,26.484c-1.568,10.637-8.67,11.967-11.533,7.648c-2.658-4.006-0.602-7.863-2.264-11.363c-2.179-4.583-5.321-6.829-10.366-6.274c-1.089,0.119-2.174,0.3-3.259,0.452l-0.126,0.169c0,0,0.155-0.14,0.155-0.141c0.315-0.379,0.6-0.787,0.95-1.131c5.213-5.12,10.244-9.22,16.169-13.433c3.789-2.692,7.146-4.963,5.115-8.305c-1.535-2.521-5.535-2.095-9.432,0.633c-8.356,5.849-12.705,10.858-18.422,16.977c-0.555,0.594-1.676,2.195-2.016,1.583c0.044-4.415,0.284-8.781,0.09-13.13c-0.322-7.179-5.078-10.28-11.919-7.896c-2.346,0.818-4.578,1.957-6.86,2.955c-2.369,1.036-2.744,2.927-2.461,5.268c0.333,2.749,2.533,3.611,5.207,3.303c1.588-0.183,2.763-1.109,3.952-1.987c2.066-1.527,3.057-0.718,3.473,1.463c0.39,2.051,0.573,4.117,0.588,6.215c0.071,10.25-0.344,18.89-1.167,29.078c-0.264,3.266-0.425,5.52,3.438,5.91c3.667,0.371,5.338-1.031,5.403-4.301c0.068-3.477,0.054-6.955,0.026-10.432c-0.015-2.018,0.92-3.313,2.682-4.258c5.532-2.971,9.697-1.303,11.378,4.752C42.775,65.869,40.752,75.877,56.871,76.545z"></path>
        </symbol>
    </defs>
</svg>
