<?xml version="1.0" encoding="UTF-8" ?>
<!DOCTYPE svg PUBLIC "-//W3C//DTD SVG 1.1//EN" "http://www.w3.org/Graphics/SVG/1.1/DTD/svg11.dtd">
<svg xmlns="http://www.w3.org/2000/svg" style="display: none;">
    <devs>
         <!-- Define a Filter -->
        <filter id="shadow">
            <!-- Grab the Alpha Channel and set Greyscale -->
            <feColorMatrix in="SourceAlpha"
                           type="matrix"
                           values="0 0 0 0 0
                                   0 0 0 0 0
                                   0 0 0 0 0
                                   0 0 0 0.5 0"/>
            <!-- Blur it! -->
            <feGaussianBlur stdDeviation="2" />
            <!-- And merge it all together into SourceGraphic-->
            <feMerge>
                <feMergeNode/>
                <feMergeNode in="SourceGraphic" />
            </feMerge>
        </filter>
    </devs>
    <defs>
        <symbol id="twitter" viewBox="0 0 16 16">
            <path fill="currentColor" d="M15.969,3.058c-0.586,0.26-1.217,0.436-1.878,0.515c0.675-0.405,1.194-1.045,1.438-1.809c-0.632,0.375-1.332,0.647-2.076,0.793c-0.596-0.636-1.446-1.033-2.387-1.033c-1.806,0-3.27,1.464-3.27,3.27 c0,0.256,0.029,0.506,0.085,0.745C5.163,5.404,2.753,4.102,1.14,2.124C0.859,2.607,0.698,3.168,0.698,3.767 c0,1.134,0.577,2.135,1.455,2.722C1.616,6.472,1.112,6.325,0.671,6.08c0,0.014,0,0.027,0,0.041c0,1.584,1.127,2.906,2.623,3.206 C3.02,9.402,2.731,9.442,2.433,9.442c-0.211,0-0.416-0.021-0.615-0.059c0.416,1.299,1.624,2.245,3.055,2.271 c-1.119,0.877-2.529,1.4-4.061,1.4c-0.264,0-0.524-0.015-0.78-0.046c1.447,0.928,3.166,1.469,5.013,1.469 c6.015,0,9.304-4.983,9.304-9.304c0-0.142-0.003-0.283-0.009-0.423C14.976,4.29,15.531,3.714,15.969,3.058z" />
        </symbol>
        <symbol id="github" viewBox="0 0 16 16">
            <path fill="currentColor" d="M7.999,0.431c-4.285,0-7.76,3.474-7.76,7.761 c0,3.428,2.223,6.337,5.307,7.363c0.388,0.071,0.53-0.168,0.53-0.374c0-0.184-0.007-0.672-0.01-1.32 c-2.159,0.469-2.614-1.04-2.614-1.04c-0.353-0.896-0.862-1.135-0.862-1.135c-0.705-0.481,0.053-0.472,0.053-0.472 c0.779,0.055,1.189,0.8,1.189,0.8c0.692,1.186,1.816,0.843,2.258,0.645c0.071-0.502,0.271-0.843,0.493-1.037 C4.86,11.425,3.049,10.76,3.049,7.786c0-0.847,0.302-1.54,0.799-2.082C3.768,5.507,3.501,4.718,3.924,3.65 c0,0,0.652-0.209,2.134,0.796C6.677,4.273,7.34,4.187,8,4.184c0.659,0.003,1.323,0.089,1.943,0.261 c1.482-1.004,2.132-0.796,2.132-0.796c0.423,1.068,0.157,1.857,0.077,2.054c0.497,0.542,0.798,1.235,0.798,2.082 c0,2.981-1.814,3.637-3.543,3.829c0.279,0.24,0.527,0.713,0.527,1.437c0,1.037-0.01,1.874-0.01,2.129 c0,0.208,0.14,0.449,0.534,0.373c3.081-1.028,5.302-3.935,5.302-7.362C15.76,3.906,12.285,0.431,7.999,0.431z" />
        </symbol>
        <symbol id="linkedin" viewBox="0 0 512 512">
            <path fill="currentColor" d="M78.77,210.052h78.769V433.23H78.77V210.052z M343.18,202.436c22.18,0.135,50.551,11.026,67.872,28.622  c17.974,20.083,22.179,42.788,22.179,70.892V433.23h-78.769V311.27c0-22.32-9.052-49.507-38.59-50.41  c-17.32,0.275-28.487,10.243-36.77,27.038c-2.359,5.513-1.833,11.692-1.833,17.859l-1.577,127.474h-78.77V210.052h78.77  l1.577,29.141c5.371-8.923,12.858-17.314,22.192-24.007C312.052,206.115,326.77,202.686,343.18,202.436z M118.154,103.058  c20.218,0.275,40.301,16.147,41.089,40.302c0.526,21.545-18.243,40.308-41.615,40.308h-0.525c-20.083,0-39.775-16.41-40.698-40.308  C76.802,122.09,94.654,103.596,118.154,103.058z M0,0v512h512V0H0z" />
        </symbol>
        <symbol id="xing" viewBox="0 0 1000 940">
            <path fill="currentColor" d="M0 698l219 0l173-286-130-229l-219 0l130 229zm362-90l346-608l232 0l-345 608 222 392l-232 0z" />
        </symbol>
        <symbol id="menu" viewBox="0 0 16 16">
            <path fill="currentColor" d="M18,1.484c0,0.82-0.665,1.484-1.484,1.484H1.484C0.665,2.969,0,2.304,0,1.484l0,0C0,0.665,0.665,0,1.484,0 h15.031C17.335,0,18,0.665,18,1.484L18,1.484z" />
            <path fill="currentColor" d="M18,7.516C18,8.335,17.335,9,16.516,9H1.484C0.665,9,0,8.335,0,7.516l0,0c0-0.82,0.665-1.484,1.484-1.484 h15.031C17.335,6.031,18,6.696,18,7.516L18,7.516z" />
            <path fill="currentColor" d="M18,13.516C18,14.335,17.335,15,16.516,15H1.484C0.665,15,0,14.335,0,13.516l0,0 c0-0.82,0.665-1.484,1.484-1.484h15.031C17.335,12.031,18,12.696,18,13.516L18,13.516z" />
        </symbol>
        <symbol id="keybase" viewBox="0 0 100 100">
            <path fill="currentColor" d="M0,0v100h100V0H0z M82.55,76.802c-6.545,0.246-12.021-8.511-13.274-11.276c-1.25,1.613-2.945,11.162-12.404,11.02 c-16.119-0.668-14.096-10.676-15.19-14.598c-1.681-6.055-5.846-7.723-11.378-4.752c-1.762,0.945-2.697,2.24-2.682,4.258 c0.028,3.477,0.042,6.955-0.026,10.432c-0.065,3.27-1.736,4.672-5.403,4.301c-3.863-0.39-3.702-2.644-3.438-5.91 c0.823-10.188,1.238-18.827,1.167-29.077c-0.015-2.098-0.198-4.164-0.588-6.215c-0.416-2.181-1.407-2.99-3.473-1.463 c-1.189,0.878-2.364,1.804-3.952,1.987c-2.674,0.308-4.874-0.554-5.207-3.303c-0.283-2.341,0.092-4.232,2.461-5.268 c2.282-0.998,4.514-2.137,6.86-2.955c6.841-2.384,11.597,0.717,11.919,7.896c0.194,4.349-0.046,8.715-0.09,13.13 c0.34,0.612,1.461-0.989,2.016-1.583c5.717-6.119,10.066-11.128,18.422-16.977c3.896-2.728,7.896-3.154,9.432-0.633 c2.031,3.342-1.326,5.613-5.115,8.305c-5.924,4.213-10.956,8.313-16.168,13.433c-0.339,0.333-0.618,0.726-0.921,1.095 c1.066-0.15,2.131-0.327,3.201-0.443c5.045-0.555,8.187,1.691,10.366,6.273c1.662,3.5-0.394,7.357,2.265,11.363 c2.862,4.319,9.965,2.989,11.532-7.648c2.037-9.891,2.739-19.363,4.976-26.483c1.033-3.288,2.586-8.802,5.656-6.64 c3.743,2.642,3.143,3.36,2.819,6.644c-0.462,4.734-1.802,8.769-3.065,16.23c-0.781,4.604-1.638,7.065,0.114,11.723 c0.847,2.254,5.39,11.196,8.795,11.467c2.899,0.229,6.084-2.325,5.021-5.819c-1.674-5.502-12.182-3.606-9.144-7.853 c2.384-3.332,7.517-2.112,11.673,1.908C96.919,66.329,92.945,76.413,82.55,76.802z" />
        </symbol>
    </defs>
</svg>
